<svg xmlns="http://www.w3.org/2000/svg" width="928" height="479" viewBox="0 0 928 479" fill="none"><rect width="928" height="479" rx="12" fill="white"></rect><rect x="57" y="50" width="220" height="51" rx="8" fill="#F1F1F1"></rect><rect x="57" y="299" width="220" height="51" rx="8" fill="#F1F1F1"></rect><rect x="57" y="372" width="160" height="51" rx="8" fill="#F1F1F1"></rect><rect x="526" y="299" width="220" height="51" rx="8" fill="#F1F1F1"></rect><rect x="526" y="372" width="160" height="51" rx="8" fill="#F1F1F1"></rect><rect x="458" y="282" width="6" height="156" fill="#E3E3E3"></rect><rect x="57" y="243" width="5.99996" height="813" transform="rotate(-90 57 243)" fill="#E3E3E3"></rect><path d="M857.1 115.82L850.215 108.935C849.934 108.656 849.553 108.499 849.157 108.499C848.761 108.499 848.381 108.656 848.1 108.935C847.959 109.075 847.848 109.241 847.771 109.423C847.695 109.606 847.656 109.802 847.656 110C847.656 110.198 847.695 110.394 847.771 110.577C847.848 110.76 847.959 110.926 848.1 111.065L855 117.935C855.14 118.075 855.252 118.241 855.328 118.423C855.404 118.606 855.443 118.802 855.443 119C855.443 119.198 855.404 119.394 855.328 119.577C855.252 119.76 855.14 119.926 855 120.065L848.1 126.935C847.817 127.216 847.658 127.597 847.656 127.995C847.655 128.393 847.812 128.775 848.092 129.058C848.373 129.34 848.754 129.5 849.152 129.501C849.55 129.502 849.932 129.346 850.215 129.065L857.1 122.18C857.942 121.336 858.416 120.193 858.416 119C858.416 117.808 857.942 116.664 857.1 115.82V115.82Z" fill="#374957"></path><path d="M857.1 364.82L850.215 357.935C849.934 357.656 849.553 357.499 849.157 357.499C848.761 357.499 848.381 357.656 848.1 357.935C847.959 358.075 847.848 358.241 847.771 358.423C847.695 358.606 847.656 358.802 847.656 359C847.656 359.198 847.695 359.394 847.771 359.577C847.848 359.76 847.959 359.926 848.1 360.065L855 366.935C855.14 367.075 855.252 367.241 855.328 367.423C855.404 367.606 855.443 367.802 855.443 368C855.443 368.198 855.404 368.394 855.328 368.577C855.252 368.76 855.14 368.926 855 369.065L848.1 375.935C847.817 376.216 847.658 376.597 847.656 376.995C847.655 377.393 847.812 377.775 848.092 378.058C848.373 378.34 848.754 378.5 849.152 378.501C849.55 378.502 849.932 378.346 850.215 378.065L857.1 371.18C857.942 370.336 858.416 369.193 858.416 368C858.416 366.808 857.942 365.664 857.1 364.82V364.82Z" fill="#374957"></path><circle cx="74.5" cy="169" r="17.5" fill="#FFE45D"></circle><circle cx="74.5" cy="169" r="13.65" fill="#FDA125" stroke="#F6961C" stroke-width="0.699989"></circle><path d="M68.3502 177.55V161.26H75.382C76.591 161.26 77.649 161.498 78.5558 161.976C79.4626 162.453 80.1679 163.124 80.6716 163.988C81.1754 164.852 81.4273 165.863 81.4273 167.019C81.4273 168.185 81.1675 169.196 80.6478 170.049C80.1334 170.903 79.4095 171.561 78.4762 172.022C77.5482 172.483 76.4638 172.714 75.2229 172.714H71.0229V169.278H74.332C74.8517 169.278 75.2945 169.188 75.6604 169.007C76.0316 168.822 76.3153 168.559 76.5115 168.22C76.713 167.88 76.8137 167.48 76.8137 167.019C76.8137 166.552 76.713 166.154 76.5115 165.825C76.3153 165.491 76.0316 165.237 75.6604 165.062C75.2945 164.882 74.8517 164.791 74.332 164.791H72.7729V177.55H68.3502Z" fill="#FFE45D"></path><path d="M102.528 184V154.909H114.006C116.203 154.909 118.078 155.302 119.631 156.088C121.193 156.865 122.382 157.968 123.196 159.398C124.02 160.818 124.432 162.49 124.432 164.412C124.432 166.344 124.015 168.006 123.182 169.398C122.348 170.78 121.141 171.841 119.56 172.58C117.988 173.318 116.084 173.688 113.849 173.688H106.165V168.744H112.855C114.029 168.744 115.005 168.583 115.781 168.261C116.558 167.939 117.135 167.456 117.514 166.812C117.902 166.169 118.097 165.368 118.097 164.412C118.097 163.446 117.902 162.632 117.514 161.969C117.135 161.306 116.553 160.804 115.767 160.463C114.991 160.113 114.01 159.938 112.827 159.938H108.679V184H102.528ZM118.239 170.761L125.469 184H118.679L111.605 170.761H118.239ZM138.381 187.636V151.273H140.71V187.636H138.381ZM144.56 163.276C144.446 162.13 143.958 161.24 143.097 160.605C142.235 159.971 141.065 159.653 139.588 159.653C138.584 159.653 137.737 159.795 137.045 160.08C136.354 160.354 135.824 160.738 135.455 161.23C135.095 161.723 134.915 162.281 134.915 162.906C134.896 163.427 135.005 163.882 135.241 164.27C135.488 164.658 135.824 164.994 136.25 165.278C136.676 165.553 137.169 165.795 137.727 166.003C138.286 166.202 138.883 166.372 139.517 166.514L142.131 167.139C143.4 167.423 144.564 167.802 145.625 168.276C146.686 168.749 147.604 169.331 148.381 170.023C149.157 170.714 149.759 171.528 150.185 172.466C150.62 173.403 150.843 174.478 150.852 175.69C150.843 177.471 150.388 179.014 149.489 180.321C148.598 181.618 147.311 182.627 145.625 183.347C143.949 184.057 141.927 184.412 139.56 184.412C137.211 184.412 135.166 184.052 133.423 183.332C131.69 182.613 130.336 181.547 129.361 180.136C128.395 178.716 127.888 176.959 127.841 174.866H133.793C133.859 175.842 134.138 176.656 134.631 177.31C135.133 177.954 135.8 178.441 136.634 178.773C137.476 179.095 138.428 179.256 139.489 179.256C140.53 179.256 141.435 179.104 142.202 178.801C142.978 178.498 143.58 178.077 144.006 177.537C144.432 176.997 144.645 176.377 144.645 175.676C144.645 175.023 144.451 174.473 144.062 174.028C143.684 173.583 143.125 173.205 142.386 172.892C141.657 172.58 140.762 172.295 139.702 172.04L136.534 171.244C134.081 170.648 132.145 169.715 130.724 168.446C129.304 167.177 128.598 165.468 128.608 163.318C128.598 161.557 129.067 160.018 130.014 158.702C130.971 157.385 132.282 156.358 133.949 155.619C135.616 154.881 137.509 154.511 139.631 154.511C141.79 154.511 143.674 154.881 145.284 155.619C146.903 156.358 148.163 157.385 149.062 158.702C149.962 160.018 150.426 161.543 150.455 163.276H144.56ZM176.733 154.909V184H170.582V160.747H170.412L163.75 164.923V159.469L170.952 154.909H176.733ZM195.053 184.639C192.61 184.63 190.508 184.028 188.746 182.835C186.995 181.642 185.645 179.914 184.698 177.651C183.761 175.387 183.297 172.665 183.306 169.483C183.306 166.311 183.775 163.607 184.712 161.372C185.659 159.137 187.009 157.437 188.761 156.273C190.522 155.098 192.62 154.511 195.053 154.511C197.487 154.511 199.58 155.098 201.332 156.273C203.093 157.447 204.447 159.152 205.394 161.386C206.341 163.612 206.81 166.311 206.8 169.483C206.8 172.674 206.327 175.402 205.38 177.665C204.442 179.928 203.098 181.656 201.346 182.849C199.594 184.043 197.496 184.639 195.053 184.639ZM195.053 179.54C196.72 179.54 198.05 178.702 199.045 177.026C200.039 175.349 200.531 172.835 200.522 169.483C200.522 167.277 200.295 165.439 199.84 163.972C199.395 162.504 198.761 161.401 197.937 160.662C197.122 159.923 196.161 159.554 195.053 159.554C193.396 159.554 192.07 160.383 191.076 162.04C190.082 163.697 189.58 166.178 189.57 169.483C189.57 171.718 189.793 173.583 190.238 175.08C190.692 176.566 191.332 177.684 192.156 178.432C192.979 179.17 193.945 179.54 195.053 179.54ZM222.592 184.639C220.149 184.63 218.047 184.028 216.286 182.835C214.534 181.642 213.184 179.914 212.237 177.651C211.3 175.387 210.836 172.665 210.845 169.483C210.845 166.311 211.314 163.607 212.251 161.372C213.198 159.137 214.548 157.437 216.3 156.273C218.061 155.098 220.159 154.511 222.592 154.511C225.026 154.511 227.119 155.098 228.871 156.273C230.632 157.447 231.986 159.152 232.933 161.386C233.88 163.612 234.349 166.311 234.339 169.483C234.339 172.674 233.866 175.402 232.919 177.665C231.982 179.928 230.637 181.656 228.885 182.849C227.133 184.043 225.036 184.639 222.592 184.639ZM222.592 179.54C224.259 179.54 225.589 178.702 226.584 177.026C227.578 175.349 228.071 172.835 228.061 169.483C228.061 167.277 227.834 165.439 227.379 163.972C226.934 162.504 226.3 161.401 225.476 160.662C224.661 159.923 223.7 159.554 222.592 159.554C220.935 159.554 219.609 160.383 218.615 162.04C217.621 163.697 217.119 166.178 217.109 169.483C217.109 171.718 217.332 173.583 217.777 175.08C218.232 176.566 218.871 177.684 219.695 178.432C220.518 179.17 221.484 179.54 222.592 179.54ZM244.187 180.023L244.031 181.585C243.907 182.835 243.671 184.08 243.32 185.321C242.979 186.571 242.62 187.703 242.241 188.716C241.871 189.729 241.573 190.525 241.346 191.102H237.425C237.567 190.544 237.762 189.762 238.008 188.759C238.254 187.764 238.486 186.647 238.704 185.406C238.922 184.166 239.059 182.902 239.116 181.614L239.187 180.023H244.187ZM259.897 184.639C257.454 184.63 255.352 184.028 253.59 182.835C251.838 181.642 250.489 179.914 249.542 177.651C248.604 175.387 248.14 172.665 248.15 169.483C248.15 166.311 248.619 163.607 249.556 161.372C250.503 159.137 251.853 157.437 253.604 156.273C255.366 155.098 257.463 154.511 259.897 154.511C262.331 154.511 264.424 155.098 266.175 156.273C267.937 157.447 269.291 159.152 270.238 161.386C271.185 163.612 271.654 166.311 271.644 169.483C271.644 172.674 271.171 175.402 270.224 177.665C269.286 179.928 267.942 181.656 266.19 182.849C264.438 184.043 262.34 184.639 259.897 184.639ZM259.897 179.54C261.564 179.54 262.894 178.702 263.888 177.026C264.883 175.349 265.375 172.835 265.366 169.483C265.366 167.277 265.138 165.439 264.684 163.972C264.239 162.504 263.604 161.401 262.781 160.662C261.966 159.923 261.005 159.554 259.897 159.554C258.24 159.554 256.914 160.383 255.92 162.04C254.925 163.697 254.424 166.178 254.414 169.483C254.414 171.718 254.637 173.583 255.082 175.08C255.536 176.566 256.175 177.684 256.999 178.432C257.823 179.17 258.789 179.54 259.897 179.54ZM287.436 184.639C284.993 184.63 282.891 184.028 281.129 182.835C279.377 181.642 278.028 179.914 277.081 177.651C276.143 175.387 275.679 172.665 275.689 169.483C275.689 166.311 276.158 163.607 277.095 161.372C278.042 159.137 279.392 157.437 281.143 156.273C282.905 155.098 285.002 154.511 287.436 154.511C289.87 154.511 291.963 155.098 293.714 156.273C295.476 157.447 296.83 159.152 297.777 161.386C298.724 163.612 299.193 166.311 299.183 169.483C299.183 172.674 298.71 175.402 297.763 177.665C296.825 179.928 295.481 181.656 293.729 182.849C291.977 184.043 289.879 184.639 287.436 184.639ZM287.436 179.54C289.103 179.54 290.433 178.702 291.428 177.026C292.422 175.349 292.914 172.835 292.905 169.483C292.905 167.277 292.678 165.439 292.223 163.972C291.778 162.504 291.143 161.401 290.32 160.662C289.505 159.923 288.544 159.554 287.436 159.554C285.779 159.554 284.453 160.383 283.459 162.04C282.464 163.697 281.963 166.178 281.953 169.483C281.953 171.718 282.176 173.583 282.621 175.08C283.075 176.566 283.714 177.684 284.538 178.432C285.362 179.17 286.328 179.54 287.436 179.54Z" fill="#474747"></path><path d="M392.1 364.82L385.215 357.935C384.934 357.656 384.553 357.499 384.157 357.499C383.761 357.499 383.381 357.656 383.1 357.935C382.959 358.075 382.848 358.241 382.771 358.423C382.695 358.606 382.656 358.802 382.656 359C382.656 359.198 382.695 359.394 382.771 359.577C382.848 359.76 382.959 359.926 383.1 360.065L390 366.935C390.14 367.075 390.252 367.241 390.328 367.423C390.404 367.606 390.443 367.802 390.443 368C390.443 368.198 390.404 368.394 390.328 368.577C390.252 368.76 390.14 368.926 390 369.065L383.1 375.935C382.817 376.216 382.658 376.597 382.656 376.995C382.655 377.393 382.812 377.775 383.092 378.058C383.373 378.34 383.754 378.5 384.152 378.501C384.55 378.502 384.932 378.346 385.215 378.065L392.1 371.18C392.942 370.336 393.416 369.193 393.416 368C393.416 366.808 392.942 365.664 392.1 364.82V364.82Z" fill="#374957"></path></svg>